<svg width="3737" height="1566" viewBox="0 0 3737 1566" fill="none" xmlns="http://www.w3.org/2000/svg">
<path d="M1743 1541C1318.2 1491.4 404 1537 0 1566C86.4 1506.4 1162 1455.17 1689 1437L1743 1541Z" fill="#00ED64"/>
<path d="M1878 1542.5C2113.6 1512.1 3215.17 1544.83 3736.5 1565V1533.5C3294.9 1522.7 2445.17 1464.67 2075.5 1437C2021.9 1474.6 1921.5 1523 1878 1542.5Z" fill="#00ED64"/>
<path d="M1805.5 1312.42L1725 1397.92C1210.6 1345.52 398 1431.75 56 1481.42L207 1241.92C671.4 1156.32 1061.83 1161.25 1199 1174.42C1538.6 1205.62 1744.83 1279.42 1805.5 1312.42Z" fill="#00ED64"/>
<path d="M1845.5 1256.67L1821.5 1287.17C1471.5 1046.37 606 1041.5 217 1069.17L305.5 849.166C1271.9 812.366 1734.83 1105.5 1845.5 1256.67Z" fill="#00ED64"/>
<path d="M1880.5 1196.5L1883.5 1228.5C1593.9 960.1 1278 827.5 1278 827.5C1278 827.5 675.333 601.833 410 525L499.5 414C1448.3 742.4 1816.17 1071.5 1880.5 1196.5Z" fill="#00ED64"/>
<path d="M1852 797C1838 945 1870.5 1106.5 1878.5 1167C1684.9 846.6 899.5 485.833 531 345.5C605 283.1 737.167 138.5 794 74C1424.8 262.8 1759.33 631.833 1852 797Z" fill="#00ED64"/>
<path d="M3320 471L2808.5 0C2228.9 206.4 1958 535.667 1895 674.5C1876.5 719 1887 981.5 1887 981.5L1914 1204.5C2098 952.5 2322 826.5 2411 795C2528.6 711.4 3066 544.167 3320 471Z" fill="#00ED64"/>
<path d="M1947 1247L1922 1226C2089.6 1045.2 2208.5 948 2247 922C2462.2 762 3003 605.333 3246.5 547L3496.5 855C2771.7 933.4 2558.83 974.667 2543 985.5C2227.8 1022.3 2014.33 1175.17 1947 1247Z" fill="#00ED64"/>
<path d="M2896.5 1407.44C2658.5 1361.44 2281.33 1388.27 2122.5 1407.44L2022 1341.94C2178 1267.94 2332 1237.1 2389.5 1230.94C2698.3 1196.54 3325.17 1282.27 3600 1329.44C3618 1373.84 3682.83 1449.27 3713 1481.44C3176.2 1447.04 2945 1417.77 2896.5 1407.44Z" fill="#00ED64"/>
<path d="M1999 1314.5L1962 1283C2142.8 1100.6 2509.67 1031.67 2670.5 1020C2997.3 1020 3375 1041.33 3523 1052L3576 1269.5C3412.4 1233.5 3106.17 1201.5 2973.5 1190C2425.5 1115.6 2095.5 1242 1999 1314.5Z" fill="#00ED64" stroke="black"/>
<path d="M1784.5 1517.5C1762.9 1515.5 1738.17 1463.33 1728.5 1437.5C1814.1 1397.5 1882.5 1298.17 1906 1253.5C1917.6 1331.9 2016.83 1381.83 2060.5 1410.5C1814.5 1532.5 1811.5 1520 1784.5 1517.5Z" fill="#00ED64"/>
</svg>
